# xmcd
#
# Track frame offsets: 
#        150
#        19305
#        35801
#        55918
#        69880
#        87028
#        105746
#        116645
#        127722
#
# Disc length: 1916 seconds
#
# Revision: 0
# Processed by: cddbd v1.5.2PL0 Copyright (c) Steve Scherf et al.
# Submitted via: ExactAudioCopy v0.99pb1
#
DISCID=6f077a09
DTITLE=Marisa Monte - Infinito ao Meu Redor 
DYEAR=2008
DGENRE=Blues
TTITLE0=Infinito particular
TTITLE1=Universo ao meu redor
TTITLE2=Carnavália
TTITLE3=Aconteceu
TTITLE4=Pernambucolismo
TTITLE5=Alta Noite
TTITLE6=Mais uma vez
TTITLE7=Pedindo pra voltar
TTITLE8=Não é Proibido
EXTD=
EXTT0=
EXTT1=
EXTT2=
EXTT3=
EXTT4=
EXTT5=
EXTT6=
EXTT7=
EXTT8=
PLAYORDER=
